<?xml version="1.0" standalone="no"?>
<!DOCTYPE svg PUBLIC "-//W3C//DTD SVG 20010904//EN"
 "http://www.w3.org/TR/2001/REC-SVG-20010904/DTD/svg10.dtd">
<svg version="1.0" xmlns="http://www.w3.org/2000/svg"
 width="1254.000000pt" height="1254.000000pt" viewBox="0 0 1254.000000 1254.000000"
 preserveAspectRatio="xMidYMid meet">
<metadata>
Created by potrace 1.16, written by Peter Selinger 2001-2019
</metadata>
<g transform="translate(0.000000,1254.000000) scale(0.100000,-0.100000)"
fill="#ffff" stroke="#ffff">
<path d="M6880 11353 c-519 -23 -1092 -136 -1520 -300 -502 -192 -875 -426
-1195 -747 -187 -188 -326 -383 -415 -583 -34 -76 -36 -78 -115 -88 -81 -10
-263 -60 -365 -100 -529 -207 -953 -600 -1196 -1110 -289 -608 -328 -1301
-111 -1940 179 -523 523 -947 977 -1204 89 -51 262 -126 326 -142 40 -10 51
-19 82 -67 19 -31 57 -101 83 -156 115 -242 157 -514 146 -941 -10 -349 -35
-598 -122 -1205 -67 -471 -62 -544 44 -651 218 -217 994 -373 2136 -429 289
-15 1147 -15 1445 0 732 35 1302 115 1667 235 286 94 417 197 452 357 13 56
27 197 46 443 63 821 110 1246 171 1540 43 208 30 186 135 219 181 57 375 167
545 308 307 256 528 672 601 1133 24 153 24 473 -1 605 -50 273 -179 512 -386
720 -392 392 -980 575 -1850 574 -773 -1 -1192 -142 -1350 -455 -139 -273 -49
-661 194 -834 30 -22 55 -43 56 -46 1 -13 -245 -33 -395 -32 -428 2 -732 120
-917 353 -179 227 -202 563 -57 840 133 254 384 424 739 502 92 20 133 22 335
22 209 0 249 -3 440 -32 632 -97 967 -93 1313 18 328 105 600 327 769 626 136
240 203 529 190 818 -31 674 -429 1189 -1142 1479 -495 202 -1124 298 -1755
270z m465 -203 c1059 -67 1797 -417 2089 -990 244 -480 193 -1050 -131 -1450
-256 -315 -660 -466 -1193 -446 -183 6 -249 14 -595 68 -196 30 -227 32 -460
32 -223 0 -261 -2 -355 -22 -293 -64 -513 -175 -686 -347 -147 -146 -232 -302
-286 -525 -22 -92 -17 -328 10 -433 98 -392 409 -651 888 -739 170 -31 507
-31 709 0 224 35 529 114 628 164 28 14 37 25 37 43 0 31 -8 32 -170 39 -247
10 -428 97 -529 254 -95 148 -104 356 -24 504 39 72 130 151 228 198 352 171
1202 201 1812 64 536 -119 907 -382 1105 -779 75 -150 108 -294 115 -501 26
-734 -376 -1384 -1002 -1619 -122 -46 -197 -58 -380 -59 l-170 -1 -3 -27 c-2
-20 3 -31 22 -43 37 -25 161 -64 222 -71 61 -8 60 -6 39 -96 -57 -245 -114
-747 -170 -1473 -13 -181 -28 -358 -31 -392 l-6 -62 -42 28 c-308 211 -1137
373 -2156 421 -277 13 -973 13 -1250 0 -906 -43 -1660 -183 -1960 -365 -32
-19 -60 -35 -62 -35 -3 0 17 147 43 327 94 650 125 1017 116 1392 -8 363 -58
598 -174 824 -21 40 -39 74 -41 77 -1 3 38 11 88 18 155 21 270 77 244 120
-10 15 -35 18 -195 23 -155 6 -200 11 -284 33 -306 82 -600 273 -832 541 -371
428 -558 999 -522 1597 24 415 124 747 321 1076 156 260 402 508 670 674 215
134 522 244 731 264 89 8 110 20 126 75 24 80 142 296 216 395 564 753 1671
1210 2980 1232 61 1 182 -3 270 -8z m-575 -8410 c975 -45 1704 -170 2071 -355
62 -32 129 -92 129 -115 0 -100 -327 -223 -813 -305 -445 -75 -929 -111 -1602
-121 -1242 -19 -2400 112 -2806 317 -128 64 -150 112 -81 179 209 198 980 354
1982 399 259 12 874 12 1120 1z"/>
<path d="M4720 5545 c-22 -26 -7 -122 33 -207 112 -243 357 -467 572 -523 63
-16 97 -9 115 25 17 32 -3 55 -83 97 -212 111 -407 309 -516 525 -42 84 -50
93 -77 96 -19 2 -36 -3 -44 -13z"/>
<path d="M6862 5378 c-5 -7 -25 -47 -45 -89 -86 -188 -222 -332 -401 -424 -68
-35 -82 -52 -72 -88 4 -19 16 -29 41 -36 83 -23 240 54 362 178 139 139 237
372 189 446 -18 27 -57 34 -74 13z"/>
<path d="M8486 5315 c-8 -8 -29 -43 -46 -78 -40 -79 -123 -188 -198 -259 -100
-96 -218 -165 -419 -248 -12 -5 -26 -21 -29 -36 -6 -22 -2 -32 21 -52 26 -22
36 -24 89 -19 171 14 403 162 536 342 91 123 150 290 121 343 -14 26 -52 29
-75 7z"/>
</g>
</svg>
