<?xml version="1.0" encoding="UTF-8" standalone="no"?>
<!-- Created with Inkscape (http://www.inkscape.org/) -->

<svg
   width="400"
   height="400"
   viewBox="0 0 105.83333 105.83333"
   version="1.1"
   id="svg1"
   inkscape:version="1.4 (e7c3feb1, 2024-10-09)"
   sodipodi:docname="logo2.svg"
   xmlns:inkscape="http://www.inkscape.org/namespaces/inkscape"
   xmlns:sodipodi="http://sodipodi.sourceforge.net/DTD/sodipodi-0.dtd"
   xmlns="http://www.w3.org/2000/svg"
   xmlns:svg="http://www.w3.org/2000/svg">
  <sodipodi:namedview
     id="namedview1"
     pagecolor="#ffffff"
     bordercolor="#000000"
     borderopacity="0.25"
     inkscape:showpageshadow="2"
     inkscape:pageopacity="0.0"
     inkscape:pagecheckerboard="0"
     inkscape:deskcolor="#d1d1d1"
     inkscape:document-units="mm"
     inkscape:zoom="1.4142136"
     inkscape:cx="145.31044"
     inkscape:cy="236.52722"
     inkscape:window-width="1728"
     inkscape:window-height="1354"
     inkscape:window-x="0"
     inkscape:window-y="30"
     inkscape:window-maximized="0"
     inkscape:current-layer="layer1" />
  <defs
     id="defs1" />
  <g
     inkscape:label="Layer 1"
     inkscape:groupmode="layer"
     id="layer1">
    <path
       d="M 59.513071,0.5749702 C 53.89442,0.8239672 47.691166,2.0472961 43.057672,3.822747 c -5.434611,2.0785761 -9.472679,4.6118418 -12.936974,8.086961 -2.024447,2.035274 -3.52925,4.146328 -4.492757,6.311512 -0.368081,0.82277 -0.389733,0.844422 -1.244981,0.952681 -0.876899,0.108259 -2.847217,0.649556 -3.95146,1.082592 -5.726912,2.240965 -10.317102,6.495549 -12.9478014,12.016771 -3.1286911,6.582157 -3.550901,14.08453 -1.2016767,21.002283 1.9378392,5.66196 5.6619561,10.252146 10.5769231,13.034402 0.963508,0.552128 2.836392,1.364069 3.52925,1.53729 0.433038,0.108257 0.552122,0.205695 0.887726,0.72534 0.205693,0.335596 0.617077,1.093418 0.898551,1.688837 1.244981,2.619872 1.699669,5.564522 1.580585,10.187191 -0.108259,3.778255 -0.378908,6.473901 -1.320763,13.045228 -0.725336,5.099014 -0.671206,5.889305 0.476341,7.047685 2.36005,2.34922 10.760965,4.03806 23.124165,4.64431 3.128692,0.16239 12.417334,0.16239 15.643459,0 7.924573,-0.3789 14.095342,-1.24497 18.046809,-2.54409 3.096217,-1.01764 4.514404,-2.1327 4.89331,-3.864852 0.140749,-0.606255 0.292306,-2.132709 0.498,-4.79589 0.68203,-8.888067 1.190847,-13.489081 1.851231,-16.671908 0.465508,-2.251792 0.324779,-2.013615 1.461498,-2.370876 1.959497,-0.617074 4.059714,-1.807921 5.900118,-3.334375 3.323561,-2.771447 5.716085,-7.275023 6.506375,-12.26578 0.25983,-1.656365 0.25983,-5.12065 -0.0109,-6.549675 -0.5413,-2.955477 -1.937838,-5.542866 -4.1788,-7.794659 -4.243763,-4.243763 -10.609398,-6.224905 -20.027948,-6.214078 -8.36844,0.01089 -12.904494,1.537281 -14.614989,4.925793 -1.504803,2.955477 -0.530469,7.15593 2.100229,9.028816 0.324775,0.238168 0.595427,0.465508 0.606246,0.49799 0.01086,0.140739 -2.652344,0.357252 -4.276236,0.346424 -4.633492,-0.0216 -7.924571,-1.299103 -9.927367,-3.821537 -1.937842,-2.457496 -2.186838,-6.094994 -0.617079,-9.093781 1.439849,-2.749783 4.157154,-4.590187 8.000358,-5.434611 0.995979,-0.216512 1.439845,-0.238167 3.626678,-0.238167 2.262617,0 2.695656,0.03249 4.763407,0.346424 6.841975,1.050118 10.468664,1.006817 14.214428,-0.194867 3.550905,-1.136719 6.495555,-3.540069 8.325131,-6.777022 1.472325,-2.59822 2.197665,-5.726915 2.056926,-8.855605 C 90.540132,12.212834 86.231414,6.6374856 78.512529,3.4979688 73.153702,1.3111327 66.344201,0.271845 59.513044,0.5749702 Z m 5.034051,2.1976627 c 11.464656,0.7253359 19.454182,4.5144083 22.615354,10.7176601 2.641527,5.196442 2.089399,11.367214 -1.418197,15.697588 -2.771437,3.410161 -7.145112,5.04488 -12.915318,4.828358 -1.981144,-0.06498 -2.69566,-0.151566 -6.441428,-0.736158 -2.121881,-0.324778 -2.457491,-0.346433 -4.979925,-0.346433 -2.414179,0 -2.825565,0.0216 -3.843204,0.238168 -3.171994,0.692857 -5.553695,1.894532 -7.42658,3.7566 -1.591409,1.580581 -2.511612,3.269419 -3.096212,5.683596 -0.238169,0.995989 -0.184043,3.550915 0.108256,4.687625 1.060943,4.243762 4.427805,7.047683 9.613416,8.000363 1.840411,0.335596 5.488749,0.335596 7.675582,0 2.425005,-0.378907 5.726914,-1.234158 6.798686,-1.775449 0.303123,-0.151566 0.400552,-0.27065 0.400552,-0.465517 0,-0.335605 -0.08658,-0.346433 -1.840405,-0.422216 -2.674003,-0.108256 -4.633497,-1.050109 -5.726914,-2.749783 -1.028459,-1.602236 -1.125895,-3.854029 -0.259824,-5.456256 0.422212,-0.779468 1.407372,-1.634719 2.46831,-2.143536 3.810725,-1.851232 13.012754,-2.17601 19.616565,-0.692857 5.802689,1.288285 9.819122,4.135497 11.962645,8.433388 0.811941,1.623882 1.169202,3.182817 1.244985,5.423782 0.281468,7.946226 -4.070547,14.983082 -10.847571,17.52717 -1.320768,0.49799 -2.132709,0.627902 -4.113852,0.638729 l -1.840404,0.01089 -0.03249,0.292306 c -0.0216,0.216512 0.03249,0.335596 0.238167,0.465507 0.400552,0.27065 1.742975,0.692867 2.40335,0.768641 0.660384,0.08658 0.649547,0.06498 0.422207,1.03929 -0.617074,2.652345 -1.234158,8.086964 -1.840404,15.946579 -0.140739,1.959495 -0.303123,3.875682 -0.335606,4.243761 l -0.06498,0.671202 -0.454689,-0.303123 C 79.302805,94.468226 70.32812,92.714435 59.296511,92.19478 c -2.998779,-0.140738 -10.533621,-0.140738 -13.532399,0 -9.808284,0.465508 -17.971028,1.981151 -21.218804,3.951466 -0.34643,0.205685 -0.649556,0.378897 -0.671208,0.378897 -0.03248,0 0.184041,-1.5914 0.465515,-3.540067 1.017637,-7.036856 1.353241,-11.009969 1.255807,-15.069692 -0.08661,-3.929803 -0.627903,-6.473891 -1.88371,-8.920551 -0.227345,-0.433035 -0.422211,-0.801123 -0.443863,-0.833596 -0.01083,-0.03249 0.411385,-0.119084 0.952682,-0.194867 1.678017,-0.227349 2.922997,-0.833596 2.641523,-1.299113 C 26.753795,66.504873 26.483147,66.47239 24.751001,66.418262 23.072983,66.353278 22.585817,66.299178 21.676439,66.061011 18.363708,65.173286 15.180887,63.105533 12.669273,60.204193 8.6528571,55.570697 6.6284101,49.389092 7.0181431,42.915191 7.2779647,38.422433 8.3605576,34.828227 10.493264,31.266503 c 1.688884,-2.814739 4.35206,-5.499569 7.253407,-7.296669 2.327573,-1.450678 5.65113,-2.641528 7.913747,-2.858047 0.963508,-0.08661 1.190851,-0.216518 1.364067,-0.811943 0.259822,-0.866074 1.53728,-3.204473 2.338399,-4.276238 C 35.468702,7.8716871 47.452995,2.9242424 61.624127,2.686072 62.284505,2.675245 63.594441,2.718554 64.547122,2.772683 Z M 58.322219,93.818623 c 10.555278,0.487172 18.447372,1.840404 22.420485,3.843192 0.671202,0.346433 1.396551,0.99599 1.396551,1.244985 0,1.08259 -3.540088,2.41418 -8.801486,3.3019 -4.817527,0.81195 -10.057277,1.20169 -17.343119,1.30995 -13.445795,0.20569 -25.982211,-1.21251 -30.377534,-3.43183 -1.385719,-0.69286 -1.623889,-1.212493 -0.876901,-1.937842 2.262618,-2.143527 10.609401,-3.832365 21.456975,-4.319528 2.803914,-0.129911 9.461851,-0.129911 12.125029,-0.01089 z"
       id="path1"
       style="display:inline;fill:none;fill-opacity:1;stroke:#ffffff;stroke-width:2.19824;stroke-dasharray:none;stroke-opacity:1" />
  </g>
</svg>
